<?xml version="1.0" standalone="no"?>
<!DOCTYPE svg PUBLIC "-//W3C//DTD SVG 20010904//EN"
 "http://www.w3.org/TR/2001/REC-SVG-20010904/DTD/svg10.dtd">
<svg version="1.0" xmlns="http://www.w3.org/2000/svg"
 width="500.000000pt" height="500.000000pt" viewBox="0 0 500.000000 500.000000"
 preserveAspectRatio="xMidYMid meet">
<metadata>
Created by potrace 1.14, written by Peter Selinger 2001-2017
</metadata>
<g transform="translate(0.000000,500.000000) scale(0.100000,-0.100000)"
fill="#000000" stroke="none">
<path d="M1230 2720 l0 -280 65 0 65 0 0 115 0 116 108 -3 107 -3 3 -112 3
-113 64 0 65 0 0 280 0 280 -65 0 -64 0 -3 -107 -3 -108 -107 -3 -108 -3 0
111 0 110 -65 0 -65 0 0 -280z"/>
<path d="M2010 2721 l0 -281 60 0 59 0 3 78 3 77 90 5 c55 4 102 12 121 23
132 70 137 263 9 342 -47 29 -52 30 -197 33 l-148 4 0 -281z m287 134 c21 -24
24 -36 20 -69 -8 -59 -34 -76 -118 -76 l-69 0 0 91 0 91 71 -4 c64 -3 74 -7
96 -33z"/>
<path d="M2600 2905 l0 -65 620 0 620 0 0 65 0 65 -620 0 -620 0 0 -65z"/>
<path d="M2820 2340 l0 -280 60 0 60 0 0 280 0 280 -60 0 -60 0 0 -280z"/>
<path d="M3240 2340 l0 -280 65 0 65 0 2 169 3 169 120 -168 120 -169 58 0 57
-1 0 280 0 280 -65 0 -65 0 -2 -167 -3 -168 -120 167 -120 167 -57 1 -58 0 0
-280z"/>
<path d="M1200 2120 l0 -70 618 2 617 3 3 68 3 67 -621 0 -620 0 0 -70z"/>
</g>
</svg>
