<?xml version="1.0" standalone="no"?>
<!DOCTYPE svg PUBLIC "-//W3C//DTD SVG 20010904//EN"
 "http://www.w3.org/TR/2001/REC-SVG-20010904/DTD/svg10.dtd">
<svg version="1.0" xmlns="http://www.w3.org/2000/svg"
 width="500.000000pt" height="500.000000pt" viewBox="0 0 500.000000 500.000000"
 preserveAspectRatio="xMidYMid meet">
<metadata>
Created by potrace 1.14, written by Peter Selinger 2001-2017
</metadata>
<g transform="translate(0.000000,500.000000) scale(0.100000,-0.100000)"
fill="#000000" stroke="none">
<path d="M1665 3163 l-156 -198 158 164 159 165 119 -125 c66 -68 168 -173
227 -234 l107 -110 79 78 c69 67 84 77 115 77 55 0 67 8 67 46 l0 34 80 0 80
0 0 -30 c0 -22 5 -30 18 -30 24 0 336 42 341 46 2 2 -43 47 -99 101 l-103 98
-76 10 -76 10 -3 38 -3 37 -55 0 -54 0 0 -95 c0 -52 -4 -95 -8 -95 -20 0 -32
28 -32 72 0 26 -1 48 -2 48 -2 0 -156 20 -343 45 -187 25 -349 45 -361 45 -16
0 -61 -50 -179 -197z"/>
<path d="M1610 2980 c-117 -121 -210 -220 -206 -220 3 0 99 79 211 175 113 96
208 175 210 175 2 0 53 -35 112 -78 173 -126 175 -124 33 25 -74 79 -138 143
-141 143 -4 0 -102 -99 -219 -220z"/>
<path d="M3235 3032 c-16 -2 -141 -19 -278 -38 -136 -19 -250 -34 -252 -34 -3
0 -5 -17 -5 -39 0 -22 -6 -44 -15 -51 -13 -11 -15 -2 -15 69 l0 81 -51 0 -51
0 4 -32 3 -33 -67 -10 c-75 -11 -36 20 -352 -282 l-150 -143 406 0 406 0 218
228 c121 125 223 229 228 231 5 2 56 -45 113 -105 l105 -109 -63 80 c-145 183
-152 190 -184 187z"/>
<path d="M1755 2905 c-14 -13 -25 -36 -25 -50 0 -23 4 -25 40 -25 l40 0 0 50
c0 58 -16 65 -55 25z"/>
<path d="M1850 2880 l0 -50 35 0 c31 0 35 3 35 25 0 26 -39 75 -60 75 -5 0
-10 -22 -10 -50z"/>
<path d="M3180 2823 c-153 -158 -157 -164 -55 -95 50 34 102 70 116 82 l26 20
179 -152 c99 -83 188 -158 199 -167 11 -8 -20 27 -70 79 -135 142 -306 320
-308 320 -2 0 -41 -39 -87 -87z"/>
<path d="M1730 2755 c0 -34 1 -35 40 -35 39 0 40 1 40 35 0 34 -1 35 -40 35
-39 0 -40 -1 -40 -35z"/>
<path d="M1850 2755 c0 -33 2 -35 35 -35 33 0 35 2 35 35 0 33 -2 35 -35 35
-33 0 -35 -2 -35 -35z"/>
<path d="M3225 2678 c-26 -15 -35 -28 -35 -55 0 -19 6 -23 30 -23 29 0 30 2
30 45 0 25 -1 45 -2 45 -2 0 -12 -6 -23 -12z"/>
<path d="M3280 2645 c0 -45 0 -45 35 -45 29 0 35 4 35 20 0 22 -41 70 -60 70
-5 0 -10 -20 -10 -45z"/>
<path d="M3190 2540 c0 -27 3 -30 30 -30 27 0 30 3 30 30 0 27 -3 30 -30 30
-27 0 -30 -3 -30 -30z"/>
<path d="M3280 2540 c0 -28 3 -30 35 -30 32 0 35 2 35 30 0 28 -3 30 -35 30
-32 0 -35 -2 -35 -30z"/>
<path d="M1170 2045 c0 -113 2 -135 15 -135 12 0 15 13 15 60 l0 60 85 0 85 0
0 -60 c0 -47 3 -60 15 -60 13 0 15 19 13 132 -2 94 -7 133 -15 136 -10 3 -13
-13 -13 -57 l0 -61 -85 0 -85 0 0 60 c0 47 -3 60 -15 60 -13 0 -15 -22 -15
-135z"/>
<path d="M1530 2045 l0 -135 95 0 c117 0 127 18 13 22 l-83 3 -3 48 -3 47 70
0 c56 0 71 3 71 15 0 12 -14 15 -70 15 l-70 0 0 45 0 45 80 0 c64 0 80 3 80
15 0 12 -17 15 -90 15 l-90 0 0 -135z"/>
<path d="M1901 2163 c-13 -27 -111 -244 -111 -249 0 -2 6 -4 14 -4 8 0 20 16
27 35 l13 35 76 0 76 0 17 -35 c9 -19 23 -35 31 -35 10 0 -3 39 -47 135 -33
74 -66 135 -73 135 -8 0 -17 -8 -23 -17z m79 -150 c0 -9 -18 -13 -60 -13 -33
0 -60 2 -60 5 0 3 14 36 31 73 l31 67 29 -60 c15 -33 28 -66 29 -72z"/>
<path d="M2110 2165 c0 -11 12 -15 45 -15 l45 0 0 -120 c0 -100 3 -120 15
-120 13 0 15 20 15 120 l0 120 45 0 c33 0 45 4 45 15 0 12 -18 15 -105 15 -87
0 -105 -3 -105 -15z"/>
<path d="M2560 2045 c0 -113 2 -135 15 -135 11 0 15 11 15 40 0 38 1 40 33 40
92 1 147 35 147 92 0 67 -48 98 -150 98 l-60 0 0 -135z m162 88 c10 -9 18 -30
18 -49 0 -44 -30 -64 -97 -64 l-53 0 0 65 0 65 57 0 c38 0 62 -5 75 -17z"/>
<path d="M2880 2085 c0 -136 24 -175 105 -175 51 0 91 24 104 61 6 18 11 72
11 120 0 72 -3 89 -15 89 -12 0 -15 -18 -15 -99 0 -121 -13 -146 -80 -146 -67
0 -80 25 -80 146 0 81 -3 99 -15 99 -12 0 -15 -17 -15 -95z"/>
<path d="M3230 2045 c0 -112 3 -135 15 -135 11 0 15 20 17 102 l3 102 47 -81
c26 -45 51 -84 56 -87 4 -3 30 34 58 81 l49 85 3 -101 c2 -81 6 -101 17 -101
12 0 15 23 15 135 0 101 -3 135 -12 135 -7 0 -37 -43 -67 -95 -29 -52 -56 -95
-60 -95 -4 0 -31 43 -61 95 -30 52 -61 95 -67 95 -10 0 -13 -34 -13 -135z"/>
<path d="M3640 2045 c0 -113 2 -135 15 -135 11 0 15 11 15 40 0 38 1 40 33 40
92 1 147 35 147 92 0 67 -48 98 -150 98 l-60 0 0 -135z m162 88 c10 -9 18 -30
18 -49 0 -44 -30 -64 -97 -64 l-53 0 0 65 0 65 57 0 c38 0 62 -5 75 -17z"/>
<path d="M1150 1515 c0 -113 2 -135 15 -135 13 0 15 22 15 135 0 113 -2 135
-15 135 -13 0 -15 -22 -15 -135z"/>
<path d="M1310 1516 c0 -113 2 -136 15 -136 11 0 15 21 17 106 l3 106 83 -106
c46 -58 90 -106 98 -106 12 0 14 21 12 132 -2 92 -7 133 -15 135 -9 3 -13 -24
-15 -104 l-3 -108 -84 105 c-46 58 -90 106 -97 108 -11 3 -14 -23 -14 -132z"/>
<path d="M1693 1640 c-25 -10 -43 -39 -43 -68 0 -27 28 -49 86 -68 62 -21 74
-31 74 -60 0 -41 -70 -57 -124 -29 -19 10 -33 12 -39 6 -15 -15 46 -41 96 -41
56 0 97 29 97 69 0 36 -25 58 -87 76 -80 24 -97 66 -39 94 23 11 36 11 68 1
42 -12 59 -7 40 12 -14 14 -101 20 -129 8z"/>
<path d="M1910 1635 c0 -11 12 -15 45 -15 l45 0 0 -120 c0 -100 3 -120 15
-120 13 0 15 20 15 120 l0 120 45 0 c33 0 45 4 45 15 0 12 -18 15 -105 15 -87
0 -105 -3 -105 -15z"/>
<path d="M2267 1593 c-14 -32 -41 -93 -61 -135 -27 -60 -32 -78 -21 -78 9 0
23 16 32 35 l17 35 73 0 73 0 17 -35 c14 -30 44 -50 42 -27 -2 26 -119 258
-131 260 -10 2 -24 -17 -41 -55z m73 -49 c17 -36 30 -68 30 -70 0 -2 -27 -4
-60 -4 -33 0 -60 4 -60 9 0 13 51 131 57 131 2 0 17 -30 33 -66z"/>
<path d="M2530 1515 l0 -135 90 0 c108 0 122 18 18 22 l-73 3 -3 123 c-2 99
-5 122 -17 122 -13 0 -15 -23 -15 -135z"/>
<path d="M2810 1515 l0 -135 85 0 c104 0 114 18 13 22 l-73 3 -3 123 c-4 169
-22 159 -22 -13z"/>
<path d="M3080 1515 l0 -135 95 0 c117 0 127 18 13 22 l-83 3 -3 48 -3 47 70
0 c56 0 71 3 71 15 0 12 -14 15 -70 15 l-70 0 0 45 0 45 80 0 c64 0 80 3 80
15 0 12 -17 15 -90 15 l-90 0 0 -135z"/>
<path d="M3380 1515 c0 -113 2 -135 15 -135 11 0 15 12 15 45 l0 45 45 0 c41
0 46 -3 75 -45 17 -25 38 -45 46 -45 17 0 14 7 -23 56 l-23 31 25 21 c50 44
43 115 -16 144 -21 12 -57 18 -96 18 l-63 0 0 -135z m160 85 c11 -11 20 -31
20 -45 0 -43 -33 -65 -95 -65 l-55 0 0 65 0 65 55 0 c42 0 60 -5 75 -20z"/>
<path d="M3718 1635 c-58 -33 -42 -103 29 -125 96 -29 113 -43 93 -80 -15 -27
-69 -35 -115 -16 -46 19 -45 19 -45 2 0 -17 51 -36 96 -36 68 0 101 32 92 91
-2 18 -15 28 -53 42 -89 33 -100 41 -100 67 0 37 45 56 97 40 42 -12 59 -7 40
12 -18 18 -104 20 -134 3z"/>
</g>
</svg>
