<svg xmlns="http://www.w3.org/2000/svg" xmlns:xlink="http://www.w3.org/1999/xlink" width="1024" zoomAndPan="magnify" viewBox="0 0 768 337.499995" height="450" preserveAspectRatio="xMidYMid meet" version="1.0"><defs><g/><clipPath id="78e522ae2e"><path d="M 0.566406 0 L 767.429688 0 L 767.429688 337 L 0.566406 337 Z M 0.566406 0 " clip-rule="nonzero"/></clipPath><clipPath id="ceb20e2df3"><path d="M 59.816406 248.28125 L 332.160156 248.28125 L 332.160156 278.566406 L 59.816406 278.566406 Z M 59.816406 248.28125 " clip-rule="nonzero"/></clipPath><clipPath id="94700950a3"><path d="M 452.804688 51.675781 L 725.144531 51.675781 L 725.144531 81.960938 L 452.804688 81.960938 Z M 452.804688 51.675781 " clip-rule="nonzero"/></clipPath></defs><g clip-path="url(#78e522ae2e)"><path fill="#ffffff" d="M 0.566406 0 L 767.433594 0 L 767.433594 337 L 0.566406 337 Z M 0.566406 0 " fill-opacity="1" fill-rule="nonzero"/><path fill="#ffffff" d="M 0.566406 0 L 767.433594 0 L 767.433594 337 L 0.566406 337 Z M 0.566406 0 " fill-opacity="1" fill-rule="nonzero"/></g><g clip-path="url(#ceb20e2df3)"><path fill="#000000" d="M 59.816406 248.28125 L 332.148438 248.28125 L 332.148438 278.566406 L 59.816406 278.566406 Z M 59.816406 248.28125 " fill-opacity="1" fill-rule="nonzero"/></g><g clip-path="url(#94700950a3)"><path fill="#000000" d="M 452.804688 51.675781 L 725.132812 51.675781 L 725.132812 81.960938 L 452.804688 81.960938 Z M 452.804688 51.675781 " fill-opacity="1" fill-rule="nonzero"/></g><g fill="#000000" fill-opacity="1"><g transform="translate(52.472007, 194.193343)"><g><path d="M 90.921875 0 L 90.921875 -49.59375 L 42.734375 -49.59375 L 42.734375 0 L 14.78125 0 L 14.78125 -123.109375 L 42.734375 -123.109375 L 42.734375 -75.796875 L 90.921875 -75.796875 L 90.921875 -123.109375 L 118.890625 -123.109375 L 118.890625 0 Z M 90.921875 0 "/></g></g></g><g fill="#000000" fill-opacity="1"><g transform="translate(222.537608, 194.193343)"><g><path d="M 14.78125 0 L 14.78125 -123.109375 L 62.96875 -123.109375 C 72.925781 -123.109375 81.539062 -121.289062 88.8125 -117.65625 C 96.082031 -114.019531 101.738281 -108.859375 105.78125 -102.171875 C 109.832031 -95.492188 111.859375 -87.640625 111.859375 -78.609375 C 111.859375 -69.703125 109.832031 -61.90625 105.78125 -55.21875 C 101.738281 -48.539062 96.082031 -43.382812 88.8125 -39.75 C 81.539062 -36.113281 72.925781 -34.296875 62.96875 -34.296875 L 42.734375 -34.296875 L 42.734375 0 Z M 42.5625 -58.390625 L 60.671875 -58.390625 C 67.941406 -58.390625 73.539062 -60.117188 77.46875 -63.578125 C 81.394531 -67.035156 83.359375 -71.988281 83.359375 -78.4375 C 83.359375 -84.882812 81.394531 -89.867188 77.46875 -93.390625 C 73.539062 -96.910156 67.941406 -98.671875 60.671875 -98.671875 L 42.5625 -98.671875 Z M 42.5625 -58.390625 "/></g></g></g><g fill="#000000" fill-opacity="1"><g transform="translate(486.178866, 253.283903)"><g><path d="M 14.78125 0 L 14.78125 -123.109375 L 42.734375 -123.109375 L 42.734375 0 Z M 14.78125 0 "/></g></g></g><g fill="#000000" fill-opacity="1"><g transform="translate(580.094651, 253.283903)"><g><path d="M 14.78125 0 L 14.78125 -123.109375 L 38.515625 -123.109375 L 92.859375 -48.1875 L 92.859375 -123.109375 L 120.65625 -123.109375 L 120.65625 0 L 96.90625 0 L 42.5625 -75.453125 L 42.5625 0 Z M 14.78125 0 "/></g></g></g></svg>