<svg xmlns="http://www.w3.org/2000/svg" xmlns:xlink="http://www.w3.org/1999/xlink" width="1024" zoomAndPan="magnify" viewBox="0 0 768 149.999998" height="200" preserveAspectRatio="xMidYMid meet" version="1.0"><defs><g/><clipPath id="0a768a76b1"><path d="M 21 6.289062 L 258 6.289062 L 258 86 L 21 86 Z M 21 6.289062 " clip-rule="nonzero"/></clipPath><clipPath id="9f31535ab1"><path d="M 249 72 L 348 72 L 348 137.539062 L 249 137.539062 Z M 249 72 " clip-rule="nonzero"/></clipPath></defs><rect x="-76.8" width="921.6" fill="#ffffff" y="-15" height="179.999997" fill-opacity="1"/><rect x="-76.8" width="921.6" fill="#ffffff" y="-15" height="179.999997" fill-opacity="1"/><path fill="#7b95a3" d="M 119.980469 76.214844 C 119.195312 75.5625 89.5 55.824219 74.972656 43.953125 L 0.117188 107.578125 L 69.414062 34.75 L 74.96875 28.914062 L 84.394531 38.820312 L 119.980469 76.214844 " fill-opacity="1" fill-rule="nonzero"/><g clip-path="url(#0a768a76b1)"><path fill="#3a414c" d="M 162.621094 64.890625 L 140.800781 85.777344 L 74.972656 16.59375 L 21.859375 72.414062 L 74.976562 6.300781 L 180.789062 20.421875 L 180.789062 33.347656 L 186.355469 39.207031 L 186.355469 9.597656 L 203.769531 9.597656 L 203.769531 20.890625 L 226.203125 23.714844 L 257.109375 53.300781 L 203.351562 60.808594 L 203.351562 51.96875 L 179.621094 51.96875 L 179.621094 61.988281 L 165.195312 63.632812 L 163.710938 63.847656 L 162.621094 64.890625 " fill-opacity="1" fill-rule="nonzero"/></g><path fill="#7b95a3" d="M 60.402344 81.582031 L 60.402344 84.867188 L 72.4375 84.867188 L 72.4375 69.546875 C 65.789062 69.546875 60.402344 74.933594 60.402344 81.582031 " fill-opacity="1" fill-rule="nonzero"/><path fill="#7b95a3" d="M 77.179688 69.546875 L 77.179688 84.867188 L 89.21875 84.867188 L 89.21875 81.582031 C 89.21875 74.933594 83.828125 69.546875 77.179688 69.546875 " fill-opacity="1" fill-rule="nonzero"/><path fill="#7b95a3" d="M 60.402344 101.632812 L 72.4375 101.632812 L 72.4375 89.59375 L 60.402344 89.59375 L 60.402344 101.632812 " fill-opacity="1" fill-rule="nonzero"/><path fill="#7b95a3" d="M 77.179688 101.632812 L 89.21875 101.632812 L 89.21875 89.59375 L 77.179688 89.59375 L 77.179688 101.632812 " fill-opacity="1" fill-rule="nonzero"/><g clip-path="url(#9f31535ab1)"><path fill="#3a414c" d="M 347.941406 137.257812 L 304.667969 100.480469 L 286.382812 84.933594 C 280.835938 89.460938 272.609375 95.382812 265.324219 100.480469 C 256.894531 106.378906 249.707031 111.175781 249.363281 111.464844 L 259.816406 100.480469 L 278.628906 80.707031 L 282.015625 77.144531 L 286.382812 72.5625 L 290.949219 77.363281 L 347.941406 137.257812 " fill-opacity="1" fill-rule="nonzero"/></g><path fill="#7b95a3" d="M 330.066406 108.339844 L 286.382812 62.433594 L 276.976562 72.316406 L 250.175781 100.480469 L 220.734375 131.421875 L 99.925781 131.421875 L 144.046875 89.1875 L 165.878906 68.289062 L 184.328125 66.046875 L 184.328125 56.675781 L 198.644531 56.675781 L 198.644531 81.027344 L 203.226562 76.210938 L 203.226562 65.574219 L 261.4375 57.449219 L 286.382812 53.964844 L 330.066406 108.339844 " fill-opacity="1" fill-rule="nonzero"/><path fill="#3a414c" d="M 298.363281 115.878906 L 298.363281 118.578125 L 288.464844 118.578125 L 288.464844 105.980469 C 293.933594 105.980469 298.363281 110.410156 298.363281 115.878906 " fill-opacity="1" fill-rule="nonzero"/><path fill="#3a414c" d="M 284.5625 105.980469 L 284.5625 118.578125 L 274.664062 118.578125 L 274.664062 115.878906 C 274.664062 110.410156 279.097656 105.980469 284.5625 105.980469 " fill-opacity="1" fill-rule="nonzero"/><path fill="#3a414c" d="M 298.363281 132.367188 L 288.464844 132.367188 L 288.464844 122.464844 L 298.363281 122.464844 L 298.363281 132.367188 " fill-opacity="1" fill-rule="nonzero"/><path fill="#3a414c" d="M 284.5625 132.367188 L 274.664062 132.367188 L 274.664062 122.464844 L 284.5625 122.464844 L 284.5625 132.367188 " fill-opacity="1" fill-rule="nonzero"/><g fill="#3a414c" fill-opacity="1"><g transform="translate(362.246227, 55.151053)"><g><path d="M 39.453125 -39.515625 L 39.453125 0 L 35.34375 0 L 35.34375 -18.234375 L 10.609375 -18.234375 L 10.609375 0 L 6.4375 0 L 6.4375 -39.515625 L 10.609375 -39.515625 L 10.609375 -21.90625 L 35.34375 -21.90625 L 35.34375 -39.515625 Z M 39.453125 -39.515625 "/></g></g></g><g fill="#3a414c" fill-opacity="1"><g transform="translate(414.808555, 55.151053)"><g><path d="M 34.375 -3.609375 L 34.375 0 L 6.4375 0 L 6.4375 -39.515625 L 33.53125 -39.515625 L 33.53125 -35.90625 L 10.609375 -35.90625 L 10.609375 -21.84375 L 31.046875 -21.84375 L 31.046875 -18.296875 L 10.609375 -18.296875 L 10.609375 -3.609375 Z M 34.375 -3.609375 "/></g></g></g><g fill="#3a414c" fill-opacity="1"><g transform="translate(459.2411, 55.151053)"><g><path d="M 31.21875 -10.5625 L 9.203125 -10.5625 L 4.453125 0 L 0.109375 0 L 18.171875 -39.515625 L 22.296875 -39.515625 L 40.359375 0 L 35.953125 0 Z M 29.6875 -13.9375 L 20.203125 -35.171875 L 10.71875 -13.9375 Z M 29.6875 -13.9375 "/></g></g></g><g fill="#3a414c" fill-opacity="1"><g transform="translate(506.383559, 55.151053)"><g><path d="M 14.109375 -35.90625 L 0.21875 -35.90625 L 0.21875 -39.515625 L 32.171875 -39.515625 L 32.171875 -35.90625 L 18.296875 -35.90625 L 18.296875 0 L 14.109375 0 Z M 14.109375 -35.90625 "/></g></g></g><g fill="#3a414c" fill-opacity="1"><g transform="translate(545.452692, 55.151053)"><g/></g></g><g fill="#3a414c" fill-opacity="1"><g transform="translate(566.907303, 55.151053)"><g><path d="M 21.21875 -39.515625 C 26.269531 -39.515625 30.222656 -38.3125 33.078125 -35.90625 C 35.941406 -33.5 37.375 -30.1875 37.375 -25.96875 C 37.375 -21.75 35.941406 -18.441406 33.078125 -16.046875 C 30.222656 -13.660156 26.269531 -12.46875 21.21875 -12.46875 L 10.609375 -12.46875 L 10.609375 0 L 6.4375 0 L 6.4375 -39.515625 Z M 21.109375 -16.140625 C 25.023438 -16.140625 28.015625 -16.992188 30.078125 -18.703125 C 32.148438 -20.421875 33.1875 -22.84375 33.1875 -25.96875 C 33.1875 -29.164062 32.148438 -31.617188 30.078125 -33.328125 C 28.015625 -35.046875 25.023438 -35.90625 21.109375 -35.90625 L 10.609375 -35.90625 L 10.609375 -16.140625 Z M 21.109375 -16.140625 "/></g></g></g><g fill="#3a414c" fill-opacity="1"><g transform="translate(614.106231, 55.151053)"><g><path d="M 22.359375 0.34375 C 17.234375 0.34375 13.238281 -1.125 10.375 -4.0625 C 7.519531 -7 6.09375 -11.269531 6.09375 -16.875 L 6.09375 -39.515625 L 10.28125 -39.515625 L 10.28125 -17.046875 C 10.28125 -12.453125 11.3125 -9.023438 13.375 -6.765625 C 15.445312 -4.515625 18.441406 -3.390625 22.359375 -3.390625 C 26.304688 -3.390625 29.316406 -4.515625 31.390625 -6.765625 C 33.460938 -9.023438 34.5 -12.453125 34.5 -17.046875 L 34.5 -39.515625 L 38.5625 -39.515625 L 38.5625 -16.875 C 38.5625 -11.269531 37.140625 -7 34.296875 -4.0625 C 31.453125 -1.125 27.472656 0.34375 22.359375 0.34375 Z M 22.359375 0.34375 "/></g></g></g><g fill="#3a414c" fill-opacity="1"><g transform="translate(665.48296, 55.151053)"><g><path d="M 47.484375 -39.515625 L 47.484375 0 L 43.46875 0 L 43.46875 -31.609375 L 27.9375 -5.03125 L 25.96875 -5.03125 L 10.4375 -31.4375 L 10.4375 0 L 6.4375 0 L 6.4375 -39.515625 L 9.875 -39.515625 L 27.046875 -10.21875 L 44.03125 -39.515625 Z M 47.484375 -39.515625 "/></g></g></g><g fill="#3a414c" fill-opacity="1"><g transform="translate(726.062163, 55.151053)"><g><path d="M 21.21875 -39.515625 C 26.269531 -39.515625 30.222656 -38.3125 33.078125 -35.90625 C 35.941406 -33.5 37.375 -30.1875 37.375 -25.96875 C 37.375 -21.75 35.941406 -18.441406 33.078125 -16.046875 C 30.222656 -13.660156 26.269531 -12.46875 21.21875 -12.46875 L 10.609375 -12.46875 L 10.609375 0 L 6.4375 0 L 6.4375 -39.515625 Z M 21.109375 -16.140625 C 25.023438 -16.140625 28.015625 -16.992188 30.078125 -18.703125 C 32.148438 -20.421875 33.1875 -22.84375 33.1875 -25.96875 C 33.1875 -29.164062 32.148438 -31.617188 30.078125 -33.328125 C 28.015625 -35.046875 25.023438 -35.90625 21.109375 -35.90625 L 10.609375 -35.90625 L 10.609375 -16.140625 Z M 21.109375 -16.140625 "/></g></g></g><g fill="#3a414c" fill-opacity="1"><g transform="translate(359.248209, 133.811693)"><g><path d="M 6.4375 -39.515625 L 10.609375 -39.515625 L 10.609375 0 L 6.4375 0 Z M 6.4375 -39.515625 "/></g></g></g><g fill="#3a414c" fill-opacity="1"><g transform="translate(382.961087, 133.811693)"><g><path d="M 39.453125 -39.515625 L 39.453125 0 L 36.015625 0 L 10.609375 -32.0625 L 10.609375 0 L 6.4375 0 L 6.4375 -39.515625 L 9.875 -39.515625 L 35.34375 -7.453125 L 35.34375 -39.515625 Z M 39.453125 -39.515625 "/></g></g></g><g fill="#3a414c" fill-opacity="1"><g transform="translate(435.523415, 133.811693)"><g><path d="M 17.328125 0.34375 C 14.390625 0.34375 11.578125 -0.125 8.890625 -1.0625 C 6.203125 -2.007812 4.125 -3.253906 2.65625 -4.796875 L 4.296875 -8.015625 C 5.722656 -6.585938 7.617188 -5.429688 9.984375 -4.546875 C 12.359375 -3.660156 14.804688 -3.21875 17.328125 -3.21875 C 20.867188 -3.21875 23.519531 -3.863281 25.28125 -5.15625 C 27.050781 -6.457031 27.9375 -8.144531 27.9375 -10.21875 C 27.9375 -11.800781 27.457031 -13.0625 26.5 -14 C 25.539062 -14.9375 24.363281 -15.660156 22.96875 -16.171875 C 21.582031 -16.679688 19.644531 -17.238281 17.15625 -17.84375 C 14.1875 -18.59375 11.816406 -19.316406 10.046875 -20.015625 C 8.273438 -20.710938 6.757812 -21.773438 5.5 -23.203125 C 4.238281 -24.628906 3.609375 -26.566406 3.609375 -29.015625 C 3.609375 -31.015625 4.132812 -32.832031 5.1875 -34.46875 C 6.25 -36.101562 7.867188 -37.410156 10.046875 -38.390625 C 12.234375 -39.367188 14.941406 -39.859375 18.171875 -39.859375 C 20.429688 -39.859375 22.644531 -39.546875 24.8125 -38.921875 C 26.976562 -38.304688 28.847656 -37.453125 30.421875 -36.359375 L 29.015625 -33.03125 C 27.359375 -34.113281 25.585938 -34.925781 23.703125 -35.46875 C 21.828125 -36.019531 19.984375 -36.296875 18.171875 -36.296875 C 14.710938 -36.296875 12.109375 -35.628906 10.359375 -34.296875 C 8.609375 -32.960938 7.734375 -31.238281 7.734375 -29.125 C 7.734375 -27.550781 8.210938 -26.28125 9.171875 -25.3125 C 10.128906 -24.351562 11.332031 -23.617188 12.78125 -23.109375 C 14.226562 -22.609375 16.175781 -22.054688 18.625 -21.453125 C 21.519531 -20.734375 23.863281 -20.023438 25.65625 -19.328125 C 27.445312 -18.640625 28.960938 -17.585938 30.203125 -16.171875 C 31.441406 -14.765625 32.0625 -12.851562 32.0625 -10.4375 C 32.0625 -8.445312 31.523438 -6.632812 30.453125 -5 C 29.378906 -3.363281 27.734375 -2.0625 25.515625 -1.09375 C 23.296875 -0.132812 20.566406 0.34375 17.328125 0.34375 Z M 17.328125 0.34375 "/></g></g></g><g fill="#3a414c" fill-opacity="1"><g transform="translate(476.907289, 133.811693)"><g><path d="M 14.109375 -35.90625 L 0.21875 -35.90625 L 0.21875 -39.515625 L 32.171875 -39.515625 L 32.171875 -35.90625 L 18.296875 -35.90625 L 18.296875 0 L 14.109375 0 Z M 14.109375 -35.90625 "/></g></g></g><g fill="#3a414c" fill-opacity="1"><g transform="translate(515.976422, 133.811693)"><g><path d="M 31.21875 -10.5625 L 9.203125 -10.5625 L 4.453125 0 L 0.109375 0 L 18.171875 -39.515625 L 22.296875 -39.515625 L 40.359375 0 L 35.953125 0 Z M 29.6875 -13.9375 L 20.203125 -35.171875 L 10.71875 -13.9375 Z M 29.6875 -13.9375 "/></g></g></g><g fill="#3a414c" fill-opacity="1"><g transform="translate(563.118881, 133.811693)"><g><path d="M 6.4375 -39.515625 L 10.609375 -39.515625 L 10.609375 -3.609375 L 32.75 -3.609375 L 32.75 0 L 6.4375 0 Z M 6.4375 -39.515625 "/></g></g></g><g fill="#3a414c" fill-opacity="1"><g transform="translate(603.034863, 133.811693)"><g><path d="M 6.4375 -39.515625 L 10.609375 -39.515625 L 10.609375 -3.609375 L 32.75 -3.609375 L 32.75 0 L 6.4375 0 Z M 6.4375 -39.515625 "/></g></g></g><g fill="#3a414c" fill-opacity="1"><g transform="translate(642.950846, 133.811693)"><g><path d="M 34.375 -3.609375 L 34.375 0 L 6.4375 0 L 6.4375 -39.515625 L 33.53125 -39.515625 L 33.53125 -35.90625 L 10.609375 -35.90625 L 10.609375 -21.84375 L 31.046875 -21.84375 L 31.046875 -18.296875 L 10.609375 -18.296875 L 10.609375 -3.609375 Z M 34.375 -3.609375 "/></g></g></g><g fill="#3a414c" fill-opacity="1"><g transform="translate(687.383396, 133.811693)"><g><path d="M 33.421875 0 L 24.390625 -12.703125 C 23.367188 -12.585938 22.3125 -12.53125 21.21875 -12.53125 L 10.609375 -12.53125 L 10.609375 0 L 6.4375 0 L 6.4375 -39.515625 L 21.21875 -39.515625 C 26.269531 -39.515625 30.222656 -38.3125 33.078125 -35.90625 C 35.941406 -33.5 37.375 -30.1875 37.375 -25.96875 C 37.375 -22.882812 36.59375 -20.273438 35.03125 -18.140625 C 33.46875 -16.015625 31.238281 -14.484375 28.34375 -13.546875 L 38 0 Z M 21.109375 -16.09375 C 25.023438 -16.09375 28.015625 -16.957031 30.078125 -18.6875 C 32.148438 -20.414062 33.1875 -22.84375 33.1875 -25.96875 C 33.1875 -29.164062 32.148438 -31.617188 30.078125 -33.328125 C 28.015625 -35.046875 25.023438 -35.90625 21.109375 -35.90625 L 10.609375 -35.90625 L 10.609375 -16.09375 Z M 21.109375 -16.09375 "/></g></g></g><g fill="#3a414c" fill-opacity="1"><g transform="translate(734.8646, 133.811693)"><g><path d="M 17.328125 0.34375 C 14.390625 0.34375 11.578125 -0.125 8.890625 -1.0625 C 6.203125 -2.007812 4.125 -3.253906 2.65625 -4.796875 L 4.296875 -8.015625 C 5.722656 -6.585938 7.617188 -5.429688 9.984375 -4.546875 C 12.359375 -3.660156 14.804688 -3.21875 17.328125 -3.21875 C 20.867188 -3.21875 23.519531 -3.863281 25.28125 -5.15625 C 27.050781 -6.457031 27.9375 -8.144531 27.9375 -10.21875 C 27.9375 -11.800781 27.457031 -13.0625 26.5 -14 C 25.539062 -14.9375 24.363281 -15.660156 22.96875 -16.171875 C 21.582031 -16.679688 19.644531 -17.238281 17.15625 -17.84375 C 14.1875 -18.59375 11.816406 -19.316406 10.046875 -20.015625 C 8.273438 -20.710938 6.757812 -21.773438 5.5 -23.203125 C 4.238281 -24.628906 3.609375 -26.566406 3.609375 -29.015625 C 3.609375 -31.015625 4.132812 -32.832031 5.1875 -34.46875 C 6.25 -36.101562 7.867188 -37.410156 10.046875 -38.390625 C 12.234375 -39.367188 14.941406 -39.859375 18.171875 -39.859375 C 20.429688 -39.859375 22.644531 -39.546875 24.8125 -38.921875 C 26.976562 -38.304688 28.847656 -37.453125 30.421875 -36.359375 L 29.015625 -33.03125 C 27.359375 -34.113281 25.585938 -34.925781 23.703125 -35.46875 C 21.828125 -36.019531 19.984375 -36.296875 18.171875 -36.296875 C 14.710938 -36.296875 12.109375 -35.628906 10.359375 -34.296875 C 8.609375 -32.960938 7.734375 -31.238281 7.734375 -29.125 C 7.734375 -27.550781 8.210938 -26.28125 9.171875 -25.3125 C 10.128906 -24.351562 11.332031 -23.617188 12.78125 -23.109375 C 14.226562 -22.609375 16.175781 -22.054688 18.625 -21.453125 C 21.519531 -20.734375 23.863281 -20.023438 25.65625 -19.328125 C 27.445312 -18.640625 28.960938 -17.585938 30.203125 -16.171875 C 31.441406 -14.765625 32.0625 -12.851562 32.0625 -10.4375 C 32.0625 -8.445312 31.523438 -6.632812 30.453125 -5 C 29.378906 -3.363281 27.734375 -2.0625 25.515625 -1.09375 C 23.296875 -0.132812 20.566406 0.34375 17.328125 0.34375 Z M 17.328125 0.34375 "/></g></g></g></svg>